<svg xmlns="http://www.w3.org/2000/svg" viewBox="0 0 64 64">
  <defs>
    <linearGradient id="fill" x1="0" y1="0" x2="1" y2="1">
      <stop offset="0" stop-color="#1ABC9C" stop-opacity=".55"/>
      <stop offset="1" stop-color="#16A085" stop-opacity=".25"/>
    </linearGradient>
  </defs>
  <rect x="4" y="4" width="56" height="56" rx="16" fill="#181818"/>
  <rect x="4" y="4" width="56" height="56" rx="16" fill="url(#fill)" stroke="#fff" stroke-opacity=".35"/>
  <path d="M16 25V20a4 4 0 0 1 4-4h5M39 16h5a4 4 0 0 1 4 4v5M48 39v5a4 4 0 0 1-4 4h-5M25 48h-5a4 4 0 0 1-4-4v-5" fill="none" stroke="#fff" stroke-width="4" stroke-linecap="round"/>
  <circle cx="32" cy="32" r="8" fill="#73C991" fill-opacity=".25"/>
  <circle cx="32" cy="32" r="4.5" fill="#73C991"/>
</svg>
